HIERARCHY
ROOT hip
{
  OFFSET 0 0 0
  CHANNELS 6 Xposition Yposition Zposition Zrotation Yrotation Xrotation
  JOINT abdomen
  {
    OFFSET 0 20.6881 -0.73152
    CHANNELS 3 Zrotation Xrotation Yrotation
    JOINT chest
    {
      OFFSET 0 11.7043 -0.48768
      CHANNELS 3 Zrotation Xrotation Yrotation
      JOINT neck
      {
        OFFSET 0 22.1894 -2.19456
        CHANNELS 3 Zrotation Xrotation Yrotation
        JOINT head
        {
          OFFSET -0.24384 7.07133 1.2192
          CHANNELS 3 Zrotation Xrotation Yrotation
          JOINT leftEye
          {
            OFFSET 4.14528 8.04674 8.04672
            CHANNELS 3 Zrotation Xrotation Yrotation
            End Site
            {
              OFFSET 1 0 0
            }
          }
          JOINT rightEye
          {
            OFFSET -3.6576 8.04674 8.04672
            CHANNELS 3 Zrotation Xrotation Yrotation
            End Site
            {
              OFFSET 1 0 0
            }
          }
        }
      }
      JOINT rCollar
      {
        OFFSET -2.68224 19.2634 -4.8768
        CHANNELS 3 Zrotation Xrotation Yrotation
        JOINT rShldr
        {
          OFFSET -8.77824 -1.95073 1.46304
          CHANNELS 3 Zrotation Xrotation Yrotation
          JOINT rForeArm
          {
            OFFSET -28.1742 -1.7115 0.48768
            CHANNELS 3 Zrotation Xrotation Yrotation
            JOINT rHand
            {
              OFFSET -22.5879 0.773209 7.07136
              CHANNELS 3 Zrotation Xrotation Yrotation
              JOINT rThumb1
              {
                OFFSET -1.2192 -0.487915 3.41376
                CHANNELS 3 Zrotation Xrotation Yrotation
                JOINT rThumb2
                {
                  OFFSET -3.37035 -0.52449 3.41376
                  CHANNELS 3 Zrotation Xrotation Yrotation
                  End Site
                  {
                    OFFSET -1.78271 -1.18214 1.43049
                  }
                }
              }
              JOINT rIndex1
              {
                OFFSET -7.75947 0.938293 5.60832
                CHANNELS 3 Zrotation Xrotation Yrotation
                JOINT rIndex2
                {
                  OFFSET -2.54057 -0.884171 1.56538
                  CHANNELS 3 Zrotation Xrotation Yrotation
                  End Site
                  {
                    OFFSET -1.62519 -0.234802 1.16502
                  }
                }
              }
              JOINT rMid1
              {
                OFFSET -8.24714 1.18213 3.41376
                CHANNELS 3 Zrotation Xrotation Yrotation
                JOINT rMid2
                {
                  OFFSET -3.10165 -0.590103 1.0647
                  CHANNELS 3 Zrotation Xrotation Yrotation
                  End Site
                  {
                    OFFSET -2.48547 -0.328903 0.83742
                  }
                }
              }
              JOINT rRing1
              {
                OFFSET -8.82822 0.546677 1.51678
                CHANNELS 3 Zrotation Xrotation Yrotation
                JOINT rRing2
                {
                  OFFSET -2.60934 -0.819778 -0.0198488
                  CHANNELS 3 Zrotation Xrotation Yrotation
                  End Site
                  {
                    OFFSET -2.33842 -0.294052 0.168128
                  }
                }
              }
              JOINT rPinky1
              {
                OFFSET -8.27202 -0.0477905 -0.4584
                CHANNELS 3 Zrotation Xrotation Yrotation
                JOINT rPinky2
                {
                  OFFSET -1.82734 -0.647385 -0.700984
                  CHANNELS 3 Zrotation Xrotation Yrotation
                  End Site
                  {
                    OFFSET -1.69225 -0.51767 -0.607171
                  }
                }
              }
            }
          }
        }
      }
      JOINT lCollar
      {
        OFFSET 2.68224 19.2634 -4.8768
        CHANNELS 3 Zrotation Xrotation Yrotation
        JOINT lShldr
        {
          OFFSET 8.77824 -1.95073 1.46304
          CHANNELS 3 Zrotation Xrotation Yrotation
          JOINT lForeArm
          {
            OFFSET 28.1742 -1.7115 0.48768
            CHANNELS 3 Zrotation Xrotation Yrotation
            JOINT lHand
            {
              OFFSET 22.5879 0.773209 7.07136
              CHANNELS 3 Zrotation Xrotation Yrotation
              JOINT lThumb1
              {
                OFFSET 1.2192 -0.487915 3.41376
                CHANNELS 3 Zrotation Xrotation Yrotation
                JOINT lThumb2
                {
                  OFFSET 3.37035 -0.52449 3.41376
                  CHANNELS 3 Zrotation Xrotation Yrotation
                  End Site
                  {
                    OFFSET 1.78271 -1.18214 1.43049
                  }
                }
              }
              JOINT lIndex1
              {
                OFFSET 7.75947 0.938293 5.60832
                CHANNELS 3 Zrotation Xrotation Yrotation
                JOINT lIndex2
                {
                  OFFSET 2.54057 -0.884171 1.56538
                  CHANNELS 3 Zrotation Xrotation Yrotation
                  End Site
                  {
                    OFFSET 1.62519 -0.234802 1.16502
                  }
                }
              }
              JOINT lMid1
              {
                OFFSET 8.24714 1.18213 3.41376
                CHANNELS 3 Zrotation Xrotation Yrotation
                JOINT lMid2
                {
                  OFFSET 3.10165 -0.590103 1.0647
                  CHANNELS 3 Zrotation Xrotation Yrotation
                  End Site
                  {
                    OFFSET 2.48547 -0.328903 0.83742
                  }
                }
              }
              JOINT lRing1
              {
                OFFSET 8.82822 0.546677 1.51678
                CHANNELS 3 Zrotation Xrotation Yrotation
                JOINT lRing2
                {
                  OFFSET 2.60934 -0.819778 -0.0198488
                  CHANNELS 3 Zrotation Xrotation Yrotation
                  End Site
                  {
                    OFFSET 2.33842 -0.294052 0.168128
                  }
                }
              }
              JOINT lPinky1
              {
                OFFSET 8.27202 -0.0477905 -0.4584
                CHANNELS 3 Zrotation Xrotation Yrotation
                JOINT lPinky2
                {
                  OFFSET 1.82734 -0.647385 -0.700984
                  CHANNELS 3 Zrotation Xrotation Yrotation
                  End Site
                  {
                    OFFSET 1.69225 -0.51767 -0.607171
                  }
                }
              }
            }
          }
        }
      }
    }
  }
  JOINT rButtock
  {
    OFFSET -8.77824 4.35084 1.2192
    CHANNELS 3 Zrotation Xrotation Yrotation
    JOINT rThigh
    {
      OFFSET 0 -1.70687 -2.19456
      CHANNELS 3 Zrotation Xrotation Yrotation
      JOINT rShin
      {
        OFFSET 0 -36.8199 0.73152
        CHANNELS 3 Zrotation Xrotation Yrotation
        JOINT rFoot
        {
          OFFSET 0.73152 -45.1104 -5.12064
          CHANNELS 3 Zrotation Xrotation Yrotation
          End Site
          {
            OFFSET -1.1221 -3.69964 12.103
          }
        }
      }
    }
  }
  JOINT lButtock
  {
    OFFSET 8.77824 4.35084 1.2192
    CHANNELS 3 Zrotation Xrotation Yrotation
    JOINT lThigh
    {
      OFFSET 0 -1.70687 -2.19456
      CHANNELS 3 Zrotation Xrotation Yrotation
      JOINT lShin
      {
        OFFSET 0 -36.8199 0.73152
        CHANNELS 3 Zrotation Xrotation Yrotation
        JOINT lFoot
        {
          OFFSET -0.73152 -45.1104 -5.12064
          CHANNELS 3 Zrotation Xrotation Yrotation
          End Site
          {
            OFFSET 1.1221 -3.69964 12.103
          }
        }
      }
    }
  }
}
MOTION
Frames:	5
Frame Time:	0.00833333
-161.999 85.4571 20.0208 0.0 0.0 0.0 1.92988 -0.00172211 0.0523837 0.532092 0.0050704 0.0921242 4.9635e-15 7.95139e-16 2.48481e-17 1.44864e-14 9.54166e-15 1.42876e-16 -0.0 0.0 0.0 -0.0 0.0 0.0 2.33479e-15 5.59082e-17 1.98785e-16 5.086e-14 8.88319e-16 1.39149e-15 8.92146e-13 -2.24627e-13 3.18055e-14 1.01407e-11 4.71045e-13 9.54166e-14 2.39348e-11 5.37521e-13 2.73528e-13 4.13234e-11 9.31903e-13 4.84239e-13 2.39365e-11 5.37911e-13 2.57625e-13 7.73091 5.47488 0.417314 2.39314e-11 5.36619e-13 2.73528e-13 2.90554 0.965183 0.102902 2.39341e-11 5.37017e-13 2.78299e-13 10.2786 0.731801 0.0259123 2.39239e-11 5.43477e-13 2.8625e-13 2.22167 -0.733487 -0.20892 2.03864e-15 5.12492e-17 -1.98785e-16 5.05524e-14 1.00014e-15 1.98785e-16 8.79821e-13 3.06327e-13 -1.59028e-14 1.01496e-11 -6.0356e-14 1.52667e-13 2.39332e-11 5.33384e-13 2.73528e-13 4.13444e-11 9.22361e-13 4.77878e-13 2.39321e-11 5.31153e-13 2.8625e-13 -7.73091 5.47488 -0.417314 2.39356e-11 5.32445e-13 2.83069e-13 -2.90554 0.965183 -0.102902 2.39354e-11 5.32445e-13 2.76708e-13 -10.2786 0.731801 -0.0259123 2.3942e-11 5.38309e-13 2.67167e-13 -2.22167 -0.733487 0.20892 -2.03217e-16 0.0 -3.88251e-19 1.95948 -7.26116 -0.192017 0.00412055 7.58528 0.107062 -0.521293 -0.33067 0.0523287 2.03217e-16 0.0 3.88251e-19 0.977982 -1.92613 0.000848092 0.00897802 -2.0786 0.073982 0.486564 3.99809 -0.136544
-155.572 85.3365 10.8703 121.57 87.7511 122.699 0.346601 1.41412 1.10215 1.02474 -0.609545 0.408504 1.13913 -1.43786 0.315831 0.016325 0.15809 0.271986 -0.0 0.0 0.0 -0.0 0.0 0.0 8.332e-15 1.28087e-13 1.824e-15 -4.26008 -0.786388 0.0706625 0.457899 0.211337 -0.649936 -1.58419e-05 0.0170056 0.00238991 5.07267e-10 1.03076e-09 -1.98412e-10 8.7712e-10 1.78363e-09 -3.42947e-10 5.07267e-10 1.03076e-09 -1.98424e-10 7.73091 5.47488 0.417314 5.07264e-10 1.03076e-09 -1.98412e-10 2.90554 0.965183 0.102902 5.07268e-10 1.03076e-09 -1.98409e-10 10.2786 0.731801 0.0259123 5.07258e-10 1.03076e-09 -1.98402e-10 2.22167 -0.733487 -0.20892 8.1242e-15 1.28084e-13 1.49554e-15 -21.6999 10.8471 -0.424643 4.34755 -1.99876 -6.7681 -0.0368547 4.27042 -0.594207 1.34598e-10 -1.28859e-10 -3.98621e-10 2.27591e-10 -2.22222e-10 -6.90654e-10 1.34597e-10 -1.28861e-10 -3.9861e-10 -7.73091 5.47488 -0.417314 1.346e-10 -1.28859e-10 -3.98612e-10 -2.90554 0.965183 -0.102902 1.34598e-10 -1.28858e-10 -3.98617e-10 -10.2786 0.731801 -0.0259123 1.34606e-10 -1.28853e-10 -3.98625e-10 -2.22167 -0.733487 0.20892 -2.03217e-16 0.0 -3.88251e-19 -0.432852 -5.10513 -1.68304 0.00408959 8.14018 0.128527 -0.552794 -4.48718 -1.01273 2.03217e-16 0.0 3.88251e-19 1.78998 0.251928 0.873198 0.00240562 -2.34123 0.039798 0.752822 0.557931 4.91542
-155.61 85.3116 10.8878 125.362 87.842 126.656 -1.37795 2.90493 2.2277 1.54193 -1.25313 0.746744 2.36227 -2.95856 0.648733 0.0360718 0.324251 0.555627 -0.0 0.0 0.0 -0.0 0.0 0.0 1.49416e-14 2.69607e-13 3.62161e-15 -10.0226 -2.09703 0.188542 1.23172 0.563343 -1.73323 -4.53979e-05 0.0453481 0.00637309 1.04888e-09 2.16796e-09 -4.24404e-10 1.81366e-09 3.75146e-09 -7.33579e-10 1.04888e-09 2.16797e-09 -4.24411e-10 7.73091 5.47488 0.417314 1.04888e-09 2.16797e-09 -4.24402e-10 2.90554 0.965183 0.102902 1.04889e-09 2.16797e-09 -4.24402e-10 10.2786 0.731801 0.0259123 1.04888e-09 2.16797e-09 -4.24395e-10 2.22167 -0.733487 -0.20892 1.48274e-14 2.69605e-13 3.36692e-15 -44.4623 22.2845 -0.878956 8.47433 -4.04627 -14.0155 0.0218127 8.81695 -1.23819 2.5182e-10 -2.67028e-10 -8.25644e-10 4.24833e-10 -4.60503e-10 -1.43053e-09 2.51819e-10 -2.67029e-10 -8.25635e-10 -7.73091 5.47488 -0.417314 2.51821e-10 -2.67025e-10 -8.25636e-10 -2.90554 0.965183 -0.102902 2.51816e-10 -2.67024e-10 -8.2564e-10 -10.2786 0.731801 -0.0259123 2.51825e-10 -2.6702e-10 -8.25646e-10 -2.22167 -0.733487 0.20892 -2.03217e-16 0.0 -3.88251e-19 -2.84257 -2.82475 -3.25591 0.00365304 8.72764 0.151222 -0.753175 -8.87231 -2.14105 2.03217e-16 0.0 3.88251e-19 2.57391 2.56189 1.78966 -0.00497071 -2.62547 0.00372572 1.69369 -3.03312 10.2871
-155.587 85.3081 11.2707 80.4898 88.1146 81.7856 -2.97588 4.23997 3.20948 2.03039 -1.83852 1.04173 3.46506 -4.31305 0.949886 0.0444722 0.474228 0.815982 -0.0 0.0 0.0 -0.0 0.0 0.0 2.03264e-14 3.8415e-13 5.07444e-15 -12.7744 -2.35915 0.212147 1.38808 0.633684 -1.94991 -5.17818e-05 0.0510167 0.00716973 1.47393e-09 3.09119e-09 -5.95785e-10 2.54871e-09 5.34902e-09 -1.02981e-09 1.47393e-09 3.0912e-09 -5.95787e-10 7.73091 5.47488 0.417314 1.47393e-09 3.0912e-09 -5.95782e-10 2.90554 0.965183 0.102902 1.47394e-09 3.0912e-09 -5.95784e-10 10.2786 0.731801 0.0259123 1.47393e-09 3.0912e-09 -5.95777e-10 2.22167 -0.733487 -0.20892 2.02953e-14 3.84149e-13 4.8842e-15 -64.5412 32.5335 -1.4841 11.6532 -5.66231 -20.3958 0.160886 12.8057 -1.82303 3.55929e-10 -3.87645e-10 -1.19641e-09 6.00084e-10 -6.68512e-10 -2.07292e-09 3.55928e-10 -3.87645e-10 -1.1964e-09 -7.73091 5.47488 -0.417314 3.5593e-10 -3.87641e-10 -1.1964e-09 -2.90554 0.965183 -0.102902 3.55922e-10 -3.8764e-10 -1.19641e-09 -10.2786 0.731801 -0.0259123 3.55932e-10 -3.87635e-10 -1.19641e-09 -2.22167 -0.733487 0.20892 -2.03217e-16 0.0 -3.88251e-19 -4.88143 -0.796931 -4.64858 0.00276356 9.24995 0.171677 -1.08913 -12.7828 -3.21326 2.03217e-16 0.0 3.88251e-19 3.21461 4.60331 2.62635 -0.0116805 -2.86649 -0.028608 3.09121 -6.09967 15.1055
-155.592 85.3054 11.2894 79.2751 88.1326 80.5922 -4.1446 5.19138 3.82433 2.43256 -2.27863 1.22815 4.23367 -5.25251 1.16941 0.0275352 0.583784 1.0181 -0.0 0.0 0.0 -0.0 0.0 0.0 2.26493e-14 4.31251e-13 5.66536e-15 -8.0 4.72161e-09 2.60833e-10 3.04391e-11 2.19121e-10 -2.25947e-11 7.05599e-10 1.36947e-09 -2.66884e-10 1.60755e-09 3.47948e-09 -6.30637e-10 2.78006e-09 6.02091e-09 -1.09003e-09 1.60755e-09 3.47949e-09 -6.30637e-10 7.73091 5.47488 0.417314 1.60755e-09 3.47949e-09 -6.30634e-10 2.90554 0.965183 0.102902 1.60756e-09 3.47949e-09 -6.30637e-10 10.2786 0.731801 0.0259123 1.60755e-09 3.47949e-09 -6.30631e-10 2.22167 -0.733487 -0.20892 2.26751e-14 4.31251e-13 5.51627e-15 -78.2077 39.8139 -2.33459 13.4804 -6.54275 -24.5143 0.300218 15.4055 -2.21938 4.27256e-10 -4.64383e-10 -1.42653e-09 7.20363e-10 -8.00845e-10 -2.47159e-09 4.27256e-10 -4.64382e-10 -1.42653e-09 -7.73091 5.47488 -0.417314 4.27257e-10 -4.64378e-10 -1.42653e-09 -2.90554 0.965183 -0.102902 4.27249e-10 -4.64377e-10 -1.42653e-09 -10.2786 0.731801 -0.0259123 4.27259e-10 -4.64373e-10 -1.42653e-09 -2.22167 -0.733487 0.20892 -2.03217e-16 0.0 -3.88251e-19 -6.23136 0.606646 -5.59607 0.00163211 9.60938 0.186368 -1.43966 -15.522 -4.0816 2.03217e-16 0.0 3.88251e-19 3.63667 5.97807 3.2539 -0.0160244 -2.99948 -0.0515643 4.34482 -8.09646 18.4235
